<svg width="24" height="24" viewBox="0 0 24 24" fill="none" xmlns="http://www.w3.org/2000/svg">
<path d="M8 18H20C20.5304 18 21.0391 17.7893 21.4142 17.4142C21.7893 17.0391 22 16.5304 22 16V4C22 3.46957 21.7893 2.96086 21.4142 2.58579C21.0391 2.21071 20.5304 2 20 2H8C7.46957 2 6.96086 2.21071 6.58579 2.58579C6.21071 2.96086 6 3.46957 6 4V16C6 16.5304 6.21071 17.0391 6.58579 17.4142C6.96086 17.7893 7.46957 18 8 18ZM8 16V4H20V16H8Z" fill="#BAB6AD"/>
<path d="M2 8H4V20H16V22H4C3.46957 22 2.96086 21.7893 2.58579 21.4142C2.21071 21.0391 2 20.5304 2 20V8Z" fill="#BAB6AD"/>
<path d="M10 14.0006H19L15.25 8.55664L13 11.6666L12.25 10.8896L10 14.0006Z" fill="#BAB6AD"/>
<path d="M10.75 8.167C10.75 8.811 11.254 9.333 11.875 9.333C12.496 9.333 13 8.811 13 8.167C13 7.522 12.496 7 11.875 7C11.254 7 10.75 7.522 10.75 8.167Z" fill="#BAB6AD"/>
</svg>
